<svg xmlns="http://www.w3.org/2000/svg" viewBox="0 0 128 128" role="img" aria-labelledby="title desc">
  <title id="title">Show Password Toggle icon</title>
  <desc id="desc">A white eye with a teal pupil on a blue rounded square.</desc>
  <defs>
    <linearGradient id="background" x1="18" y1="12" x2="110" y2="116" gradientUnits="userSpaceOnUse">
      <stop offset="0" stop-color="#2563eb"/>
      <stop offset="1" stop-color="#0f766e"/>
    </linearGradient>
  </defs>
  <rect width="128" height="128" rx="28" fill="url(#background)"/>
  <path
    fill="#ffffff"
    d="M64 36c-23.8 0-43.2 14.8-52 28 8.8 13.2 28.2 28 52 28s43.2-14.8 52-28c-8.8-13.2-28.2-28-52-28Zm0 44a16 16 0 1 1 0-32 16 16 0 0 1 0 32Z"
  />
  <circle cx="64" cy="64" r="10" fill="#14b8a6"/>
  <circle cx="68" cy="60" r="3.5" fill="#ecfeff"/>
  <path fill="#bfdbfe" d="M35 101h58a6 6 0 0 1 0 12H35a6 6 0 0 1 0-12Z"/>
  <circle cx="46" cy="107" r="3.5" fill="#0f172a"/>
  <circle cx="64" cy="107" r="3.5" fill="#0f172a"/>
  <circle cx="82" cy="107" r="3.5" fill="#0f172a"/>
</svg>
